<svg width="1485" height="287" viewBox="0 0 1485 287" fill="none" xmlns="http://www.w3.org/2000/svg">
<path d="M635.627 19.6924H597.086V61.4479H635.627V19.6924Z" fill="#0081FF"/>
<path d="M530.929 19.6924L461.171 123.775H388.771V19.6924H350.23V263.491H388.771V161.612H461.771L530.688 263.491H576.313L493.228 140.061L576.673 19.6924H530.929Z" fill="#0081FF"/>
<path d="M635.627 82.6318H597.086V263.613H635.627V82.6318Z" fill="#0081FF"/>
<path d="M953.918 88.7548C942.271 81.8976 928.824 78.469 915.377 78.9588C902.65 78.469 889.923 81.4078 878.637 87.5303C869.392 92.6732 861.587 100.265 856.064 109.449C850.902 118.51 847.42 128.306 845.739 138.715H843.458C842.377 130.878 840.216 123.286 837.214 116.061C832.412 105.041 824.607 95.612 814.642 88.9997C803.236 81.8976 789.909 78.469 776.581 79.0813C763.974 78.5915 751.488 81.4078 740.202 87.2854C731.197 92.4283 723.633 99.8978 718.47 108.837C713.547 117.531 710.185 127.204 708.624 137.123H706.463V82.5099H671.164V263.491H709.705V173.98C708.504 158.184 712.587 142.266 721.111 129.041C726.154 123.408 732.277 119.122 739.241 116.429C746.205 113.735 753.649 112.755 760.973 113.49C767.576 112.755 774.18 113.49 780.543 115.571C786.907 117.653 792.67 120.959 797.713 125.49C805.997 136.633 810.079 150.592 808.879 164.552V263.614H846.939V174.103C845.739 158.184 849.821 142.388 858.466 129.163C863.508 123.653 869.632 119.367 876.596 116.673C883.559 113.98 890.883 113 898.207 113.612C904.811 112.878 911.655 113.612 918.018 115.694C924.382 117.776 930.385 121.082 935.428 125.612C943.712 136.755 947.794 150.715 946.594 164.674V263.736H984.654V154.878C984.894 141.408 982.253 128.184 977.09 115.816C972.167 104.796 964.123 95.3672 954.038 88.8773L953.918 88.7548Z" fill="#0081FF"/>
<path d="M1179.16 90.836C1165.35 82.6318 1149.5 78.4685 1133.41 78.9583C1115.52 77.9787 1097.99 83.489 1083.83 94.5095C1072.06 104.061 1063.78 117.408 1060.41 132.347H1058.25V19.6924H1018.51V263.613H1053.81V211.572H1056.45C1059.21 227.98 1067.98 242.797 1080.95 252.96C1095.35 263.001 1112.64 268.021 1130.17 267.287C1146.86 267.899 1163.31 263.736 1177.84 255.409C1190.69 247.695 1200.77 236.062 1207.13 222.348C1213.5 206.796 1216.86 190.021 1216.86 173.123C1216.86 156.224 1213.5 139.449 1207.13 123.898C1201.25 110.306 1191.53 98.9177 1179.28 90.9584L1179.16 90.836ZM1172.08 207.409C1167.75 215.98 1160.43 222.715 1151.66 226.266C1141.1 230.184 1129.93 232.144 1118.77 231.654C1107.6 232.021 1096.43 229.939 1085.99 225.776C1077.1 222.103 1069.78 215.368 1064.98 206.919C1059.81 197.368 1057.29 186.715 1057.65 175.816V172.878C1056.93 165.041 1058.01 157.082 1060.65 149.612C1063.3 142.143 1067.5 135.408 1072.9 129.775C1085.87 119.367 1102.2 114.224 1118.65 115.326C1129.57 115.081 1140.5 116.918 1150.82 120.959C1159.47 124.632 1166.55 131.122 1171.23 139.449C1176.4 150.102 1178.8 162.102 1178.2 173.98C1178.92 185.49 1176.76 196.878 1172.08 207.409Z" fill="#0081FF"/>
<path d="M1393.11 19.6924H1282.53L1263.8 38.7946V47.611H1374.38L1393.11 28.5088V19.6924Z" fill="#0081FF"/>
<path d="M1376.43 88.6321C1362.14 81.7749 1346.53 78.3463 1330.68 78.9585C1314.11 78.4687 1297.66 81.6524 1282.42 88.2647C1270.17 93.8974 1259.6 102.836 1251.92 114.102C1244.84 125 1241.11 137.857 1241.23 150.959V152.551H1279.41V150.959C1278.93 145.571 1279.77 140.061 1281.82 135.041C1283.86 130.02 1287.22 125.612 1291.42 122.183C1302.59 115.571 1315.43 112.632 1328.28 113.489C1340.89 112.265 1353.61 115.449 1364.42 122.306C1368.26 126.469 1371.14 131.367 1372.95 136.633C1374.75 141.898 1375.47 147.653 1374.87 153.408V163.939L1294.3 172.633C1283.86 173.735 1273.65 176.306 1263.81 180.225C1256 183.531 1249.16 188.919 1244 195.776C1239.19 202.756 1236.79 211.205 1237.03 219.776C1236.79 226.511 1238.11 233.123 1240.87 239.123C1243.64 245.123 1247.96 250.389 1253.24 254.43C1266.09 263.491 1281.46 267.899 1296.94 267.042C1314.59 267.777 1332.12 263.369 1347.37 254.185C1360.46 245.981 1370.18 233.246 1374.63 218.307H1377.27V263.491H1412.57V153.531C1412.81 140.061 1409.81 126.837 1403.68 114.836C1397.32 103.449 1387.71 94.2648 1376.07 88.5096L1376.43 88.6321ZM1341.97 233.491C1330.56 237.164 1318.68 239.001 1306.67 238.756C1298.26 239.368 1289.98 237.532 1282.66 233.491C1280.14 231.776 1278.21 229.45 1276.89 226.756C1275.57 224.062 1274.85 221.001 1274.97 217.94C1274.61 214.878 1275.21 211.817 1276.41 209.123C1277.61 206.429 1279.77 204.103 1282.3 202.388C1289.14 198.47 1296.82 196.021 1304.75 195.041L1374.15 187.082C1374.63 197.49 1371.62 207.776 1365.62 216.103C1359.62 224.062 1351.45 230.062 1342.21 233.368L1341.97 233.491Z" fill="#0081FF"/>
<path d="M1484.49 19.6924H1445.95V263.613H1484.49V19.6924Z" fill="#0081FF"/>
<path d="M129.191 286.757H114.543V244.756C114.543 239.001 115.984 233.491 118.865 228.593C121.747 223.695 125.949 219.776 130.992 217.205L158.367 203.246L164.85 216.225L137.475 230.185C134.954 231.532 132.793 233.736 131.352 236.185C129.911 238.756 129.071 241.695 129.191 244.634V286.634V286.757Z" fill="#0081FF"/>
<path d="M168.69 132.959H154.402V286.756H168.69V132.959Z" fill="#0081FF"/>
<path d="M33.0162 236.429L23.0508 226.266L52.1066 196.511C56.0687 192.47 60.9914 189.653 66.3943 188.306C71.7972 186.96 77.4403 187.204 82.7232 189.041L111.779 199.205L107.337 213.041L78.2808 202.878C75.3992 201.898 72.3976 201.776 69.516 202.511C66.6344 203.245 63.993 204.715 61.9519 206.919L32.8961 236.184L33.0162 236.429Z" fill="#0081FF"/>
<path d="M157.608 146.107L51.1719 254.886L61.2854 265.179L167.722 156.4L157.608 146.107Z" fill="#0081FF"/>
<path d="M68.9174 168.225L55.23 140.429C53.9093 137.735 51.8682 135.531 49.4669 133.939C46.9455 132.347 44.0639 131.49 41.1824 131.49H0V117.041H41.1824C46.7054 117.041 52.2284 118.632 56.9109 121.571C61.7135 124.51 65.4355 128.796 67.9569 133.939L81.6443 161.857L68.9174 168.347V168.225Z" fill="#0081FF"/>
<path d="M150.682 157.694H0V172.266H150.682V157.694Z" fill="#0081FF"/>
<path d="M86.2079 113.979L72.7606 109.448L82.726 79.8154C83.6865 76.999 83.8066 73.9378 83.0862 70.999C82.3658 68.0602 80.925 65.4887 78.8839 63.4071L49.8281 33.6517L59.7935 23.4883L88.8493 53.2437C92.8115 57.2846 95.573 62.305 96.8937 67.8153C98.2144 73.3255 97.9743 79.0807 96.1733 84.4685L86.3279 113.979H86.2079Z" fill="#0081FF"/>
<path d="M31.2183 52.1416L21.1328 62.4274L127.631 171.163L137.836 160.877L31.2183 52.1416Z" fill="#0081FF"/>
<path d="M122.465 83.4893L116.102 70.5096L143.356 56.5503C145.998 55.2033 148.159 53.1216 149.72 50.6726C151.281 48.1012 152.121 45.1624 152.121 42.2236V0.223145H166.289V42.2236C166.289 47.8563 164.728 53.489 161.846 58.387C158.965 63.285 154.763 67.2034 149.72 69.6524L122.345 83.6118L122.465 83.4893Z" fill="#0081FF"/>
<path d="M126.428 0.100586H112.141V153.898H126.428V0.100586Z" fill="#0081FF"/>
<path d="M208.674 99.4078C205.312 99.4078 201.95 99.0405 198.708 97.9384L169.652 87.7751L174.095 73.9382L203.151 84.1015C205.792 84.8362 208.674 84.9587 211.435 84.224C214.076 83.4893 216.598 82.1423 218.639 80.1831L248.415 50.4277L258.381 60.5911L228.604 90.469C223.321 95.8568 216.238 99.0405 208.674 99.4078Z" fill="#0081FF"/>
<path d="M219.515 21.6215L113.078 130.4L123.192 140.693L229.628 31.9144L219.515 21.6215Z" fill="#0081FF"/>
<path d="M280.832 169.817H239.649C234.126 169.817 228.603 168.225 223.921 165.286C219.118 162.347 215.396 158.062 212.875 152.919L198.707 125L211.434 118.388L225.602 146.184C226.922 148.878 228.963 151.082 231.365 152.674C233.886 154.266 236.768 155.123 239.649 155.123H280.832V169.694V169.817Z" fill="#0081FF"/>
<path d="M280.834 114.469H130.152V129.041H280.834V114.469Z" fill="#0081FF"/>
<path d="M221.399 263.369L192.343 233.613C188.381 229.572 185.62 224.552 184.299 219.042C182.978 213.531 183.218 207.776 185.019 202.388L194.985 172.755L208.432 177.286L198.707 207.041C197.746 209.858 197.626 212.919 198.347 215.858C198.947 218.797 200.508 221.368 202.549 223.572L231.725 253.328L221.519 263.491L221.399 263.369Z" fill="#0081FF"/>
<path d="M153.202 115.571L142.996 125.857L249.614 234.593L259.699 224.307L153.202 115.571Z" fill="#0081FF"/>
</svg>
